<svg xmlns="http://www.w3.org/2000/svg" width="1em" height="1em" viewBox="0 0 24 24"><path fill="currentColor" d="M4 21v-2q0-.825.588-1.413T6 17h.5v-2H6q-.825 0-1.413-.588T4 13v-2q0-.825.588-1.413T6 9h.5V7H6q-.825 0-1.413-.588T4 5V3q0-.825.588-1.413T6 1h3q.825 0 1.413.588T11 3v2q0 .825-.588 1.413T9 7h-.5v2H9q.825 0 1.413.588T11 11h3q0-.825.588-1.413T16 9h3q.825 0 1.413.588T21 11v2q0 .825-.588 1.413T19 15h-3q-.825 0-1.413-.588T14 13h-3q0 .825-.588 1.413T9 15h-.5v2H9q.825 0 1.413.588T11 19v2q0 .825-.588 1.413T9 23H6q-.825 0-1.413-.588T4 21Zm2 0h3v-2H6v2Zm0-8h3v-2H6v2Zm10 0h3v-2h-3v2ZM6 5h3V3H6v2Zm1.5-1Zm0 8Zm10 0Zm-10 8Z"/></svg>